<?xml version="1.0" encoding="UTF-8" standalone="no"?>
<!DOCTYPE svg PUBLIC "-//W3C//DTD SVG 1.1//EN" "http://www.w3.org/Graphics/SVG/1.1/DTD/svg11.dtd">
<svg width="100%" height="100%" viewBox="0 0 1100 1080" version="1.1" xmlns="http://www.w3.org/2000/svg" xmlns:xlink="http://www.w3.org/1999/xlink" xml:space="preserve" xmlns:serif="http://www.serif.com/" style="fill-rule:evenodd;clip-rule:evenodd;stroke-linejoin:round;stroke-miterlimit:2;">
    <g transform="matrix(1,0,0,1,0,-1281)">
        <g id="Prancheta21" transform="matrix(1.018519,0,0,1,1150.925926,0)">
            <rect x="-1130" y="1281" width="1080" height="1080" style="fill:none;"/>
            <g transform="matrix(0.849256,0,0,0.864983,-1159.489928,479.004639)">
                <path d="M118.175,1897.07L151.242,1897.07L151.242,1747.47L217.375,1747.47L217.375,1721.07L51.775,1721.07L51.775,1747.47L118.175,1747.47L118.175,1897.07Z" style="fill:rgb(0,89,255);fill-rule:nonzero;"/>
                <path d="M307.242,1867.203L282.975,1854.403C277.908,1867.736 266.175,1877.603 247.775,1877.603C223.242,1877.603 211.508,1865.07 209.642,1841.07L304.042,1841.07C305.642,1835.203 306.175,1829.336 306.175,1824.003C306.175,1789.87 282.175,1768.536 243.242,1768.536C204.842,1768.536 177.108,1793.07 177.108,1833.07C177.108,1877.603 206.175,1900.003 245.642,1900.003C273.375,1900.003 297.642,1889.07 307.242,1867.203ZM244.042,1790.936C262.708,1790.936 273.108,1800.536 273.108,1815.203C273.108,1817.07 273.108,1818.936 272.575,1821.07L210.175,1821.07C213.642,1800.27 226.442,1790.936 244.042,1790.936Z" style="fill:rgb(0,89,255);fill-rule:nonzero;"/>
                <path d="M408.842,1898.403C442.975,1898.403 470.708,1882.936 484.575,1861.336L455.242,1846.936C444.042,1865.336 428.042,1873.603 408.842,1873.603C377.108,1873.603 353.908,1847.47 353.908,1809.603C353.908,1771.203 377.375,1744.536 408.842,1744.536C428.575,1744.536 444.842,1753.336 455.775,1772.536L485.108,1757.87C470.975,1735.47 443.242,1719.736 408.842,1719.736C354.175,1719.736 318.175,1761.336 318.175,1809.603C318.175,1857.336 354.708,1898.403 408.842,1898.403Z" style="fill:rgb(0,89,255);fill-rule:nonzero;"/>
                <path d="M545.908,1898.936C562.708,1898.936 576.308,1891.736 583.242,1879.47L583.242,1897.07L616.042,1897.07L616.042,1771.203L583.242,1771.203L583.242,1834.936C582.442,1868.803 564.042,1876.003 548.575,1876.003C529.908,1876.003 523.508,1864.003 523.508,1845.87L523.508,1771.203L490.442,1771.203L490.442,1845.87C490.442,1870.403 500.842,1898.936 545.908,1898.936Z" style="fill:rgb(0,89,255);fill-rule:nonzero;"/>
                <path d="M639.242,1750.936L673.108,1750.936L673.108,1716.803L639.242,1716.803L639.242,1750.936ZM639.508,1897.07L672.575,1897.07L672.575,1771.203L639.508,1771.203L639.508,1897.07Z" style="fill:rgb(0,89,255);fill-rule:nonzero;"/>
                <path d="M750.975,1899.47C776.308,1899.47 789.642,1889.603 796.042,1872.27L794.708,1885.87L794.708,1897.07L827.775,1897.07L827.775,1721.07L794.708,1721.07L794.708,1778.403L796.575,1797.87C790.175,1778.936 776.308,1768.27 750.975,1768.27C711.242,1768.27 685.375,1797.336 685.375,1833.603C685.375,1869.603 711.242,1899.47 750.975,1899.47ZM756.842,1875.736C734.442,1875.736 720.575,1858.136 720.575,1833.603C720.575,1809.336 734.175,1792.003 756.842,1792.003C781.642,1792.003 797.642,1808.003 797.642,1833.603C797.642,1861.07 780.842,1875.736 756.842,1875.736Z" style="fill:rgb(0,89,255);fill-rule:nonzero;"/>
                <path d="M878.975,1900.27C904.575,1900.27 919.508,1888.536 922.175,1878.136L922.175,1897.07L954.975,1897.07L954.975,1814.136C954.975,1793.87 944.575,1769.07 897.108,1769.07C857.108,1769.07 839.242,1794.136 840.575,1812.27L873.375,1812.27C873.108,1801.87 878.975,1790.403 898.442,1790.403C914.975,1790.403 922.175,1797.603 922.175,1807.203C922.175,1819.47 908.042,1821.87 889.908,1824.27C848.575,1829.336 834.442,1842.136 834.442,1864.27C834.442,1885.87 850.442,1900.27 878.975,1900.27ZM889.108,1880.27C873.375,1880.27 866.442,1873.336 866.442,1862.403C866.442,1848.803 877.642,1843.736 892.575,1841.336C912.308,1837.87 920.308,1834.67 922.708,1830.136L922.708,1846.67C922.708,1867.203 908.842,1880.27 889.108,1880.27Z" style="fill:rgb(0,89,255);fill-rule:nonzero;"/>
                <path d="M971.775,1897.07L1019.775,1897.07L1037.108,1855.203L1098.175,1855.203L1115.508,1897.07L1163.242,1897.07L1091.775,1721.07L1043.242,1721.07L971.775,1897.07ZM1050.975,1822.136L1067.775,1781.603L1084.308,1822.136L1050.975,1822.136Z" style="fill:rgb(106,222,138);fill-rule:nonzero;"/>
                <path d="M1180.842,1754.67L1225.375,1731.203L1269.908,1754.67L1284.842,1743.736L1225.908,1696.536L1224.842,1696.536L1165.642,1743.736L1180.842,1754.67ZM1289.375,1861.603L1252.042,1851.736C1250.442,1860.803 1243.242,1868.803 1229.375,1868.803C1211.242,1868.803 1203.508,1860.27 1201.375,1845.336L1286.975,1845.336C1288.308,1837.603 1289.375,1830.67 1289.375,1824.003C1289.375,1789.87 1264.308,1768.536 1224.042,1768.536C1184.308,1768.536 1157.908,1793.603 1157.908,1833.07C1157.908,1877.336 1185.375,1900.003 1226.975,1900.003C1258.975,1900.003 1281.108,1886.136 1289.375,1861.603ZM1225.375,1800.003C1236.575,1800.003 1244.575,1804.803 1244.575,1815.203C1244.575,1815.736 1244.575,1817.07 1244.308,1817.87L1202.175,1817.87C1205.908,1804.003 1215.242,1800.003 1225.375,1800.003Z" style="fill:rgb(106,222,138);fill-rule:nonzero;"/>
            </g>
            <g transform="matrix(0.981818,0,0,1,-10.727273,0)">
                <g transform="matrix(1.44635,0,-0,1.44635,-877.458058,1359.166257)">
                    <path d="M151.028,319.285C150.52,313.319 152.443,304.957 146.435,300.599C140.489,296.286 99.329,300.785 88.512,297.461C50.321,285.724 45.912,248.187 57.945,228.757C76.035,199.55 99.716,205.522 140.489,205.202C159.469,205.052 144.941,164.623 153.787,136.595C167.496,93.163 236.69,100.799 240.057,153.526C240.206,155.852 240.256,193.402 240.143,195.48C239.946,199.108 233.406,197.917 225.493,198.048C193.492,198.574 175.206,222.697 171.716,240.556C166.619,266.635 175.477,281.389 189.552,294.408C210.843,314.375 238.313,305.472 239.79,309.374C240.954,312.451 240.491,312.474 240.168,350.492C239.925,379.063 215.829,395.467 197.501,395.6C146.294,395.969 150.364,352.356 151.028,319.285Z" style="fill:rgb(0,89,255);"/>
                </g>
                <g transform="matrix(1.44635,0,-0,1.44635,-887.305991,1359.166257)">
                    <path d="M311.505,210.18C312.978,210.298 342.895,209.99 351.222,240.571C351.227,240.589 357.438,268.765 339.899,282.974C325.297,294.803 319.854,293.245 269.5,293.455C268.796,293.457 261.246,293.489 260.769,292.384C260.567,291.918 260.586,291.889 260.505,245.5C260.45,214.239 260.033,214.192 260.707,211.561C261.138,209.877 261.995,210.164 311.505,210.18Z" style="fill:rgb(0,89,255);"/>
                </g>
                <g transform="matrix(1.44635,0,-0,1.44635,-887.305991,1359.166257)">
                    <path d="M185.431,249.497C185.601,248.308 185.814,227.476 208.726,216.967C220.533,211.551 246.169,213.945 246.604,214.41C247.812,215.7 247.158,215.917 247.011,236.5C246.627,290.183 247.797,292.285 244.491,292.352C217.882,292.885 211.555,291.948 202.147,284.963C183.861,271.387 185.538,254.87 185.431,249.497Z" style="fill:rgb(106,222,138);"/>
                </g>
                <g transform="matrix(1.022506,-0,0,1.022506,-1062.076148,1212.333026)">
                    <circle cx="331.604" cy="376.24" r="45.273" style="fill:rgb(106,222,138);"/>
                </g>
            </g>
        </g>
    </g>
</svg>
