<?xml version="1.0" encoding="UTF-8" standalone="no"?>
<!DOCTYPE svg PUBLIC "-//W3C//DTD SVG 1.1//EN" "http://www.w3.org/Graphics/SVG/1.1/DTD/svg11.dtd">
<svg width="100%" height="100%" viewBox="0 0 1080 1080" version="1.1" xmlns="http://www.w3.org/2000/svg" xmlns:xlink="http://www.w3.org/1999/xlink" xml:space="preserve" xmlns:serif="http://www.serif.com/" style="fill-rule:evenodd;clip-rule:evenodd;stroke-linejoin:round;stroke-miterlimit:2;">
    <g transform="matrix(1,0,0,1,-3390.90649,-1281.959682)">
        <g id="Prancheta17" transform="matrix(1,0,0,1,3390.90649,151.959682)">
            <rect x="0" y="1130" width="1080" height="1080" style="fill:none;"/>
            <g transform="matrix(1,0,0,1,0,1130)">
                <g>
                    <g transform="matrix(1.44635,0,-0,1.44635,252.541942,78.166257)">
                        <path d="M151.028,319.285C150.52,313.319 152.443,304.957 146.435,300.599C140.489,296.286 99.329,300.785 88.512,297.461C50.321,285.724 45.912,248.187 57.945,228.757C76.035,199.55 99.716,205.522 140.489,205.202C159.469,205.052 144.941,164.623 153.787,136.595C167.496,93.163 236.69,100.799 240.057,153.526C240.206,155.852 240.256,193.402 240.143,195.48C239.946,199.108 233.406,197.917 225.493,198.048C193.492,198.574 175.206,222.697 171.716,240.556C166.619,266.635 175.477,281.389 189.552,294.408C210.843,314.375 238.313,305.472 239.79,309.374C240.954,312.451 240.491,312.474 240.168,350.492C239.925,379.063 215.829,395.467 197.501,395.6C146.294,395.969 150.364,352.356 151.028,319.285Z" style="fill:rgb(0,89,255);"/>
                    </g>
                    <g transform="matrix(1.44635,0,-0,1.44635,242.694009,78.166257)">
                        <path d="M311.505,210.18C312.978,210.298 342.895,209.99 351.222,240.571C351.227,240.589 357.438,268.765 339.899,282.974C325.297,294.803 319.854,293.245 269.5,293.455C268.796,293.457 261.246,293.489 260.769,292.384C260.567,291.918 260.586,291.889 260.505,245.5C260.45,214.239 260.033,214.192 260.707,211.561C261.138,209.877 261.995,210.164 311.505,210.18Z" style="fill:rgb(0,89,255);"/>
                    </g>
                    <g transform="matrix(1.44635,0,-0,1.44635,242.694009,78.166257)">
                        <path d="M185.431,249.497C185.601,248.308 185.814,227.476 208.726,216.967C220.533,211.551 246.169,213.945 246.604,214.41C247.812,215.7 247.158,215.917 247.011,236.5C246.627,290.183 247.797,292.285 244.491,292.352C217.882,292.885 211.555,291.948 202.147,284.963C183.861,271.387 185.538,254.87 185.431,249.497Z" style="fill:rgb(106,222,138);"/>
                    </g>
                    <g transform="matrix(1.022506,-0,0,1.022506,67.923852,-68.666974)">
                        <circle cx="331.604" cy="376.24" r="45.273" style="fill:rgb(106,222,138);"/>
                    </g>
                </g>
                <g>
                    <g transform="matrix(4.70328,0,0,4.70328,-326.957061,-78.903523)">
                        <path d="M89.504,196.188C94.004,196.188 96.554,193.538 97.854,191.088L93.154,188.438C92.554,190.638 91.204,191.938 89.504,191.938C87.754,191.938 86.804,190.738 86.804,188.188L86.804,176.688L95.854,176.688L95.854,171.988L86.804,171.988L86.804,162.738L80.654,162.738L80.654,171.988L76.354,171.988L76.354,176.688L80.654,176.688L80.654,188.288C80.654,192.588 82.804,196.188 89.504,196.188Z" style="fill:rgb(0,89,255);fill-rule:nonzero;"/>
                    </g>
                    <g transform="matrix(4.70328,0,0,4.70328,-326.957061,-78.903523)">
                        <path d="M121.304,190.138L116.754,187.738C115.804,190.238 113.604,192.088 110.154,192.088C105.554,192.088 103.354,189.738 103.004,185.238L120.704,185.238C121.004,184.138 121.104,183.038 121.104,182.038C121.104,175.638 116.604,171.638 109.304,171.638C102.104,171.638 96.904,176.238 96.904,183.738C96.904,192.088 102.354,196.288 109.754,196.288C114.954,196.288 119.504,194.238 121.304,190.138ZM109.454,175.838C112.954,175.838 114.904,177.638 114.904,180.388C114.904,180.738 114.904,181.088 114.804,181.488L103.104,181.488C103.754,177.588 106.154,175.838 109.454,175.838Z" style="fill:rgb(0,89,255);fill-rule:nonzero;"/>
                    </g>
                    <g transform="matrix(4.70328,0,0,4.70328,-326.957061,-78.903523)">
                        <path d="M134.804,196.288C140.904,196.288 145.004,193.988 147.104,189.038L141.704,186.888C140.704,189.988 138.904,192.038 134.804,192.038C130.304,192.038 127.554,188.938 127.554,184.188C127.554,178.838 130.754,175.838 135.104,175.838C138.404,175.838 140.704,177.638 141.054,180.638L146.454,178.138C145.054,174.238 141.004,171.638 135.104,171.638C127.404,171.638 121.604,176.238 121.604,184.188C121.604,192.088 127.904,196.288 134.804,196.288Z" style="fill:rgb(0,89,255);fill-rule:nonzero;"/>
                    </g>
                    <g transform="matrix(4.70328,0,0,4.70328,-326.957061,-78.903523)">
                        <path d="M157.604,196.088C160.754,196.088 163.304,194.738 164.604,192.438L164.604,195.738L170.754,195.738L170.754,172.138L164.604,172.138L164.604,184.088C164.454,190.438 161.004,191.788 158.104,191.788C154.604,191.788 153.404,189.538 153.404,186.138L153.404,172.138L147.204,172.138L147.204,186.138C147.204,190.738 149.154,196.088 157.604,196.088Z" style="fill:rgb(0,89,255);fill-rule:nonzero;"/>
                    </g>
                    <g transform="matrix(4.70328,0,0,4.70328,-327.427389,-75.140899)">
                        <rect x="173.804" y="161.938" width="6.35" height="6.4" style="fill:rgb(0,89,255);"/>
                    </g>
                    <g transform="matrix(4.70328,0,0,4.70328,-326.957061,-78.903523)">
                        <rect x="173.854" y="172.138" width="6.2" height="23.6" style="fill:rgb(0,89,255);"/>
                    </g>
                    <g transform="matrix(4.70328,0,0,4.70328,-326.957061,-78.903523)">
                        <path d="M194.154,196.188C198.904,196.188 201.404,194.338 202.604,191.088L202.354,193.638L202.354,195.738L208.554,195.738L208.554,162.738L202.354,162.738L202.354,173.488L202.704,177.138C201.504,173.588 198.904,171.588 194.154,171.588C186.704,171.588 181.854,177.038 181.854,183.838C181.854,190.588 186.704,196.188 194.154,196.188ZM195.254,191.738C191.054,191.738 188.454,188.438 188.454,183.838C188.454,179.288 191.004,176.038 195.254,176.038C199.904,176.038 202.904,179.038 202.904,183.838C202.904,188.988 199.754,191.738 195.254,191.738Z" style="fill:rgb(0,89,255);fill-rule:nonzero;"/>
                    </g>
                    <g transform="matrix(4.70328,0,0,4.70328,-326.957061,-78.903523)">
                        <path d="M217.154,196.338C221.954,196.338 224.754,194.138 225.254,192.188L225.254,195.738L231.404,195.738L231.404,180.188C231.404,176.388 229.454,171.738 220.554,171.738C213.054,171.738 209.704,176.438 209.954,179.838L216.104,179.838C216.054,177.888 217.154,175.738 220.804,175.738C223.904,175.738 225.254,177.088 225.254,178.888C225.254,181.188 222.604,181.638 219.204,182.088C211.454,183.038 208.804,185.438 208.804,189.588C208.804,193.638 211.804,196.338 217.154,196.338ZM219.054,192.588C216.104,192.588 214.804,191.288 214.804,189.238C214.804,186.688 216.904,185.738 219.704,185.288C223.404,184.638 224.904,184.038 225.354,183.188L225.354,186.288C225.354,190.138 222.754,192.588 219.054,192.588Z" style="fill:rgb(0,89,255);fill-rule:nonzero;"/>
                    </g>
                    <g transform="matrix(4.70328,0,0,4.70328,-326.957061,-78.903523)">
                        <rect x="232.154" y="189.388" width="6.4" height="6.35" style="fill:rgb(0,89,255);fill-rule:nonzero;"/>
                    </g>
                    <g transform="matrix(4.70328,0,0,4.70328,-326.957061,-78.903523)">
                        <path d="M251.004,196.338C255.604,196.338 258.204,194.288 258.654,192.988L258.654,195.738L266.854,195.738L266.854,180.388C266.854,176.738 265.204,171.738 254.654,171.738C245.354,171.738 242.904,177.138 242.954,180.738L250.954,180.738C250.654,178.938 251.254,176.888 254.904,176.888C257.154,176.888 258.104,177.788 258.104,178.988C258.104,180.588 255.754,181.088 253.554,181.388C244.604,182.538 241.854,185.138 241.854,189.488C241.854,193.588 245.204,196.338 251.004,196.338ZM253.454,191.538C251.354,191.538 250.154,190.788 250.154,188.938C250.154,186.788 252.004,186.038 254.504,185.688C257.604,185.238 258.104,184.688 258.404,184.238L258.404,186.538C258.404,189.888 255.904,191.538 253.454,191.538Z" style="fill:rgb(106,222,138);fill-rule:nonzero;"/>
                    </g>
                    <g transform="matrix(3.814319,0,0,3.814319,-77.306299,83.327667)">
                        <path d="M271.954,169.034L280.305,164.634L288.656,169.034L291.457,166.984L280.405,158.133L280.205,158.133L269.104,166.984L271.954,169.034Z" style="fill:rgb(106,222,138);"/>
                    </g>
                    <g transform="matrix(4.70328,0,0,4.70328,-326.957061,-78.903523)">
                        <path d="M292.307,189.087L285.306,187.237C285.006,188.937 283.656,190.437 281.056,190.437C277.655,190.437 276.205,188.837 275.805,186.036L291.857,186.036C292.107,184.586 292.307,183.286 292.307,182.036C292.307,175.635 287.606,171.635 280.055,171.635C272.604,171.635 267.654,176.335 267.654,183.736C267.654,192.037 272.805,196.288 280.605,196.288C286.606,196.288 290.757,193.687 292.307,189.087ZM280.305,177.535C282.406,177.535 283.906,178.436 283.906,180.386C283.906,180.486 283.906,180.736 283.856,180.886L275.955,180.886C276.655,178.286 278.405,177.535 280.305,177.535Z" style="fill:rgb(106,222,138);"/>
                    </g>
                </g>
            </g>
        </g>
    </g>
</svg>
